<svg width="300" height="100" xmlns="http://www.w3.org/2000/svg"><g fill="none"><path d="M147.333 56V30h4v26zm10-18.667h4v3.334c1.334-2.667 3.334-3.334 6-3.334 3.334 0 5.334 2 5.334 6v13.334h-3.334V44c0-2.667-1.333-3.333-2.666-3.333-1.334 0-2.667.666-3.334 2C162 44 162 46 162 48.667V56h-4l-.667-18.667zM180 38.667c1.333-1.334 2.667-2 4.667-2 1.333 0 2.666 0 3.333.666l3.333-2 2 3.334L190.667 40c.666 1.333.666 2 .666 3.333 0 2-.666 3.334-2 4.667-1.333 1.333-2.666 1.333-4.666 1.333-1.334 0-2 0-3.334-.666C180.667 48.667 180 50 180 50c0 1.333.667 1.333 2 1.333h4.667c4 0 6 2 6 5.334 0 2-.667 4-2.667 4.666-1.333 1.334-3.333 1.334-6 1.334-4.667 0-8-2-8-6 0-1.334.667-2.667 1.333-4C176.667 52 176 50.667 176 50c0-1.333.667-2.667 2.667-4-.667-1.333-1.334-2.667-1.334-4 .667-.667 1.334-2 2.667-3.333zm2.667 16.666h-2C180 56 180 56.667 180 58c0 2 2 3.333 4.667 3.333 2.666 0 4.666-1.333 4.666-2.666C189.333 57.333 188 56 186 56l-3.333-.667zm5.333-12c0-2-1.333-3.333-3.333-3.333S182 41.333 182 43.333s1.333 3.334 2.667 3.334c2 0 3.333-1.334 3.333-3.334zM212.667 48h-13.334c0 2.667 2 5.333 4.667 5.333 2 0 4-1.333 4.667-3.333L212 51.333c-2 3.334-4 5.334-8 5.334-6 0-8.667-5.334-8.667-9.334S198 38 204 38s8.667 4.667 8.667 9.333V48zm-13.334-3.333h9.334c0-2.667-2-4-4.667-4-2 0-4 2-4.667 4zm2-9.334L204 30h5.333l-4.666 5.333h-3.334zm15.334 2h4v3.334c1.333-2.667 3.333-3.334 6-3.334 3.333 0 5.333 2 5.333 6v13.334h-4V44c0-2.667-1.333-3.333-2.667-3.333-1.333 0-2.666.666-3.333 2-1.333 1.333-1.333 3.333-1.333 6V56h-4V37.333zM237.333 30c1.334-1.333 2.667-1.333 4 0 1.334 1.333 1.334 2.667 0 4-1.333 1.333-2.666 1.333-4 0-1.333-.667-1.333-2.667 0-4zm0 7.333h4V56h-4V37.333zM262.667 48h-13.334c0 2.667 2 5.333 4.667 5.333 2 0 4-1.333 4.667-3.333L262 51.333c-2 3.334-4 5.334-8 5.334-6 0-8.667-5.334-8.667-9.334S248 38 254 38s8.667 4.667 8.667 9.333V48zm-13.334-3.333h9.334c0-2.667-2-4-4.667-4s-4 2-4.667 4zM282.667 56h-4v-2.667c-1.334 2.667-3.334 3.334-6 3.334-3.334 0-5.334-2-5.334-6V37.333h4v12c0 2.667 1.334 3.334 2.667 3.334 1.333 0 2.667-.667 3.333-2 1.334-1.334 1.334-3.334 1.334-6v-7.334h4V56zM292 56h-4V37.333h4v3.334c1.333-2 3.333-3.334 5.333-3.334.667 0 1.334 0 2.667.667l-.667 3.333c-.666 0-1.333-.666-2-.666-1.333 0-2.666.666-3.333 2.666-1.333 1.334-1.333 3.334-1.333 6.667L292 56zM159.333 78c-1.333-2-2.666-2.667-4-2.667-1.333 0-2.666 1.334-2.666 2.667 0 2 2 3.333 4 4C160 83.333 164 85.333 164 90c0 2.667-.667 4.667-2.667 6-1.333 1.333-3.333 2-6 2-4.666 0-8-2.667-8.666-7.333l3.333-2C151.333 92 152.667 94 155.333 94c2.667 0 4-1.333 4-4 0-5.333-11.333-4-11.333-12 0-2 .667-3.333 2-4.667 1.333-1.333 2.667-2 4.667-2C158 71.333 160 72.667 162 76l-2.667 2zM176 86.667h3.333V86c0-2.667-1.333-3.333-3.333-3.333s-2.667.666-3.333 2.666l-3.334-.666c.667-3.334 3.334-5.334 7.334-5.334 4.666 0 7.333 2.667 7.333 7.334v12h-3.333v-2c-1.334 2-3.334 2.666-6 2.666-3.334 0-6-2-6-6-1.334-4.666 2-6.666 7.333-6.666zm-2 8c1.333 0 2.667-.667 3.333-1.334 1.334-.666 1.334-2 1.334-3.333v-.667h-3.334c-2.666 0-4 1.334-4 2.667 0 2 1.334 2.667 2.667 2.667zm14-15.334h4v3.334c1.333-2.667 3.333-3.334 6-3.334 3.333 0 5.333 2 5.333 6v13.334h-4v-12c0-2.667-1.333-3.334-2.666-3.334-1.334 0-2.667.667-3.334 2-1.333 1.334-1.333 3.334-1.333 6v7.334h-4V79.333zM208 72c1.333-1.333 2.667-1.333 4 0 1.333 1.333 1.333 2.667 0 4-1.333 1.333-2.667 1.333-4 0-.667-1.333-.667-2.667 0-4zm0 7.333h4V98h-4V79.333zm8 3.334v-3.334h3.333V74l4-2.667v7.334H228V82h-4.667v9.333c0 2 .667 3.334 2.667 3.334.667 0 1.333 0 2-.667l1.333 3.333C228 98 227.333 98 226 98c-3.333 0-6-2.667-6-6.667v-8.666h-4zm23.333 4h3.334V86c0-2.667-1.334-3.333-3.334-3.333s-2.666.666-3.333 2.666l-3.333-.666c.666-3.334 3.333-5.334 7.333-5.334 4.667 0 7.333 2.667 7.333 7.334v12H244V96c-1.333 2-3.333 2.667-6 2.667-3.333 0-6-2-6-6-.667-4 2.667-6 7.333-6zm-2 8c1.334 0 2.667-.667 3.334-1.334C242 92.667 242 91.333 242 90v-.667h-3.333c-2.667 0-4 1.334-4 2.667.666 2 1.333 2.667 2.666 2.667zm14-22.667c1.334-1.333 2.667-1.333 4 0 1.334 1.333 1.334 2.667 0 4-1.333 1.333-2.666 1.333-4 0-1.333-1.333-1.333-2.667 0-4zm0 7.333h4V98h-4V79.333zM264 98h-4V79.333h4v3.334c1.333-2 3.333-3.334 5.333-3.334.667 0 1.334 0 2.667.667l-.667 3.333c-.666 0-1.333-.666-2-.666-1.333 0-2.666.666-3.333 2.666-1.333 1.334-1.333 3.334-1.333 6.667L264 98zm27.333-8H278c0 2.667 2 5.333 4.667 5.333 2 0 4-1.333 4.666-3.333l3.334 1.333c-2 3.334-4 5.334-8 5.334-6 0-8.667-5.334-8.667-9.334 0-4.666 2.667-9.333 8.667-9.333s8.666 4.667 8.666 9.333V90zM278 86.667h9.333c0-2.667-2-4-4.666-4-2.667 0-4 1.333-4.667 4z" fill="#FFF"/><path d="M121.333 98.667H84c-1.333 0-2.667-1.334-2.667-2.667 0-1.333 1.334-2.667 2.667-2.667h37.333c1.334 0 2.667 1.334 2.667 2.667 0 2-.667 2.667-2.667 2.667zm0-30H84c-1.333 0-2.667-1.334-2.667-2.667 0-1.333 1.334-2.667 2.667-2.667h37.333c1.334 0 2.667 1.334 2.667 2.667.667 1.333-.667 2.667-2.667 2.667zm0 15.333H84c-1.333 0-2.667-1.333-2.667-2.667 0-1.333 1.334-2.666 2.667-2.666h37.333c1.334 0 2.667 1.333 2.667 2.666 0 1.334-.667 2.667-2.667 2.667z" fill="#31BDE6"/><path fill="#FFF" d="M54 40H14V.667H0v98h14V54h40v44.667h14.667v-98H54zm61.333-14.667c-2.666-1.333-4.666-2-8.666-3.333-4-1.333-6.667-2-8.667-3.333-1.333-.667-2-2-2-4 0-4 2.667-6 7.333-6 4 0 6.667 2 8.667 6.666l1.333 2 8-4-.666-1.333C118 4.667 111.333 0 103.333 0 98 0 94 1.333 91.333 4.667 88 7.333 86.667 11.333 86.667 16c0 6 2.666 10 7.333 12.667 3.333 1.333 4.667 2 8 2.666 4 .667 4.667.667 7.333 2 1.334 0 1.334.667 2 1.334.667.666 1.334 1.333 1.334 3.333 0 6.667-5.334 7.333-8.667 7.333-6 0-9.333-3.333-11.333-10l-1.334-2-8.666 3.334V38c2 10 9.333 16 20 16 6 0 10-1.333 13.333-4.667 4-2.666 5.333-6.666 5.333-12.666.667-5.334-1.333-8.667-6-11.334z"/></g></svg>