<svg width="299" height="79" xmlns="http://www.w3.org/2000/svg" xmlns:xlink="http://www.w3.org/1999/xlink"><defs><path id="a" d="M0 81.356h298.347V2.659H0z"/><path id="c" d="M0 81.356h298.347V2.659H0z"/><path id="e" d="M0 81.356h298.347V2.659H0z"/><path id="g" d="M0 81.356h298.347V2.659H0z"/><path id="i" d="M0 81.356h298.347V2.659H0z"/><path id="k" d="M0 81.356h298.347V2.659H0z"/><path id="m" d="M0 81.356h298.347V2.659H0z"/><path id="o" d="M0 81.356h298.347V2.659H0z"/><path id="q" d="M0 81.356h298.347V2.659H0z"/><path id="s" d="M0 81.356h298.347V2.659H0z"/><path id="u" d="M0 81.356h298.347V2.659H0z"/><path id="w" d="M0 81.356h298.347V2.659H0z"/><path id="y" d="M0 81.356h298.347V2.659H0z"/><path id="A" d="M0 81.356h298.347V2.659H0z"/><path id="C" d="M0 81.356h298.347V2.659H0z"/><path id="E" d="M0 81.356h298.347V2.659H0z"/><path id="G" d="M0 81.356h298.347V2.659H0z"/><path id="I" d="M0 81.356h298.347V2.659H0z"/><path id="K" d="M0 81.356h298.347V2.659H0z"/><path id="M" d="M0 81.356h298.347V2.659H0z"/><path id="O" d="M0 81.356h298.347V2.659H0z"/><path id="Q" d="M0 81.356h298.347V2.659H0z"/><path id="S" d="M0 81.356h298.347V2.659H0z"/><path id="U" d="M0 81.356h298.347V2.659H0z"/><path id="W" d="M0 81.356h298.347V2.659H0z"/></defs><g fill="none" fill-rule="evenodd"><path fill="#FEFEFE" fill-rule="nonzero" d="M113.663 30.666v8.227h9.514v-8.227h2.563v19.663h-2.563V41.11h-9.514v9.219h-2.537V30.666zm16.379 18.146c0-1.078.733-1.835 1.75-1.835 1.022 0 1.723.757 1.723 1.835 0 1.053-.67 1.836-1.754 1.836-1.017 0-1.719-.783-1.719-1.836m13.748-1.576c1.138.702 2.801 1.287 4.55 1.287 2.599 0 4.114-1.373 4.114-3.356 0-1.841-1.048-2.889-3.702-3.91-3.213-1.134-5.196-2.802-5.196-5.568 0-3.066 2.537-5.344 6.36-5.344 2.014 0 3.473.467 4.348.966l-.702 2.07a7.81 7.81 0 00-3.737-.936c-2.68 0-3.702 1.606-3.702 2.949 0 1.835 1.195 2.74 3.91 3.793 3.326 1.281 5.02 2.888 5.02 5.776 0 3.03-2.248 5.66-6.89 5.66-1.892 0-3.967-.555-5.014-1.256l.64-2.13zm25.3 2.567c-.672.351-2.157.819-4.053.819-4.261 0-7.033-2.888-7.033-7.205 0-4.348 2.975-7.495 7.587-7.495 1.515 0 2.857.376 3.56.727l-.586 1.983c-.615-.35-1.576-.671-2.974-.671-3.24 0-4.988 2.395-4.988 5.339 0 3.264 2.1 5.278 4.896 5.278 1.465 0 2.426-.376 3.153-.697l.437 1.922zm3.597-20.185h2.567v8.807h.056a4.818 4.818 0 011.836-1.805c.763-.438 1.668-.733 2.629-.733 1.896 0 4.932 1.17 4.932 6.041v8.4h-2.568v-8.105c0-2.278-.849-4.205-3.27-4.205-1.662 0-2.974 1.17-3.442 2.568-.147.35-.173.727-.173 1.225v8.517h-2.567v-20.71zm28.599 16.861c0 1.46.03 2.746.117 3.85h-2.273l-.148-2.304h-.056c-.676 1.139-2.16 2.623-4.667 2.623-2.217 0-4.877-1.22-4.877-6.183v-8.257h2.568v7.82c0 2.685.819 4.495 3.153 4.495 1.723 0 2.913-1.195 3.381-2.334.148-.381.234-.849.234-1.312v-8.67h2.568V46.48zm4.854-6.448c0-1.46-.03-2.654-.117-3.819h2.242l.122 2.273h.087c.788-1.342 2.1-2.593 4.433-2.593 1.922 0 3.387 1.164 3.997 2.827h.056a5.924 5.924 0 011.576-1.84c.844-.641 1.78-.987 3.122-.987 1.866 0 4.638 1.22 4.638 6.122v8.314h-2.507v-7.994c0-2.71-.992-4.342-3.061-4.342-1.46 0-2.599 1.078-3.036 2.334a4.178 4.178 0 00-.203 1.281v8.72h-2.512v-8.46c0-2.243-.992-3.875-2.944-3.875-1.607 0-2.771 1.281-3.178 2.568-.148.376-.209.813-.209 1.25v8.518h-2.506V40.03zm32.365 3.094c-2.802-.061-5.98.437-5.98 3.178 0 1.662 1.109 2.45 2.42 2.45 1.841 0 3.006-1.164 3.413-2.359.091-.264.147-.56.147-.819v-2.45zm.381 7.205l-.203-1.78h-.091c-.789 1.108-2.304 2.1-4.317 2.1-2.858 0-4.317-2.014-4.317-4.053 0-3.416 3.035-5.283 8.491-5.252v-.29c0-1.17-.325-3.27-3.213-3.27-1.312 0-2.68.407-3.677 1.048l-.58-1.688c1.17-.758 2.858-1.256 4.638-1.256 4.317 0 5.37 2.944 5.37 5.776v5.278c0 1.226.055 2.426.233 3.387h-2.334zm16.897-.527c-.671.351-2.156.819-4.052.819-4.262 0-7.033-2.888-7.033-7.205 0-4.348 2.975-7.495 7.587-7.495 1.515 0 2.857.376 3.56.727l-.586 1.983c-.615-.35-1.576-.671-2.974-.671-3.24 0-4.988 2.395-4.988 5.339 0 3.264 2.1 5.278 4.896 5.278 1.465 0 2.426-.376 3.153-.697l.437 1.922zm3.6-20.185h2.568v8.807h.056a4.796 4.796 0 011.84-1.805c.758-.438 1.663-.733 2.624-.733 1.897 0 4.932 1.17 4.932 6.041v8.4h-2.567v-8.105c0-2.278-.85-4.205-3.27-4.205-1.663 0-2.974 1.17-3.442 2.568-.143.35-.173.727-.173 1.225v8.517h-2.568v-20.71zm25.739 12.28c.03-1.632-.671-4.17-3.56-4.17-2.593 0-3.731 2.39-3.94 4.17h7.5zm-7.525 1.836c.056 3.473 2.272 4.901 4.84 4.901 1.836 0 2.95-.32 3.91-.727l.438 1.836c-.905.412-2.451.88-4.699.88-4.347 0-6.94-2.863-6.94-7.124 0-4.256 2.507-7.612 6.62-7.612 4.612 0 5.837 4.058 5.837 6.65 0 .525-.06.936-.091 1.196h-9.915zm13.777-3.12c0-1.662-.03-3.091-.117-4.403h2.242l.092 2.771h.117c.64-1.897 2.186-3.091 3.91-3.091.29 0 .493.03.727.086v2.42a4.006 4.006 0 00-.875-.086c-1.81 0-3.091 1.368-3.442 3.295-.061.35-.117.757-.117 1.195v7.53h-2.537v-9.717z"/><g transform="translate(0 -2.576)"><mask id="b" fill="#fff"><use xlink:href="#a"/></mask><path d="M110.38 77.136h1.774v-9.763h-1.774v9.763zm1.978-12.504c.02.605-.422 1.088-1.13 1.088-.625 0-1.067-.483-1.067-1.088a1.08 1.08 0 011.108-1.108c.667 0 1.089.483 1.089 1.108z" fill="#FEFEFE" fill-rule="nonzero" mask="url(#b)"/></g><g transform="translate(0 -2.576)"><mask id="d" fill="#fff"><use xlink:href="#c"/></mask><path d="M115.106 70.02c0-1.007-.02-1.836-.081-2.645h1.57l.102 1.612h.041c.488-.925 1.617-1.83 3.229-1.83 1.352 0 3.452.803 3.452 4.154v5.827h-1.774V71.51c0-1.57-.59-2.883-2.263-2.883-1.17 0-2.074.83-2.38 1.816a2.563 2.563 0 00-.121.828v5.868h-1.775V70.02z" fill="#FEFEFE" fill-rule="nonzero" mask="url(#d)"/></g><g transform="translate(0 -2.576)"><mask id="f" fill="#fff"><use xlink:href="#e"/></mask><path d="M132.89 71.229c0-.305-.02-.565-.102-.809-.32-1.027-1.19-1.871-2.481-1.871-1.693 0-2.904 1.429-2.904 3.692 0 1.911.966 3.508 2.883 3.508 1.089 0 2.08-.686 2.461-1.815.102-.305.143-.646.143-.951v-1.754zm1.835-3.855c-.04.707-.08 1.495-.08 2.685v5.67c0 2.237-.443 3.61-1.394 4.459-.946.885-2.319 1.17-3.55 1.17-1.169 0-2.46-.285-3.248-.809l.447-1.353c.646.402 1.653.768 2.863.768 1.815 0 3.147-.946 3.147-3.412v-1.088h-.04c-.545.91-1.592 1.638-3.107 1.638-2.42 0-4.155-2.06-4.155-4.765 0-3.305 2.156-5.181 4.399-5.181 1.693 0 2.618.89 3.046 1.693h.04l.082-1.475h1.55z" fill="#FEFEFE" fill-rule="nonzero" mask="url(#f)"/></g><g transform="translate(0 -2.576)"><mask id="h" fill="#fff"><use xlink:href="#g"/></mask><path d="M144.22 63.16l-2.462 2.883h-1.271l1.775-2.883h1.957zm-.423 8.15c.02-1.128-.463-2.883-2.46-2.883-1.796 0-2.584 1.653-2.726 2.884h5.186zm-5.207 1.272c.041 2.4 1.577 3.391 3.351 3.391 1.271 0 2.04-.224 2.7-.508l.305 1.27c-.625.286-1.693.606-3.249.606-3.005 0-4.8-1.978-4.8-4.922s1.734-5.263 4.576-5.263c3.189 0 4.038 2.802 4.038 4.597 0 .366-.041.646-.061.829h-6.86z" fill="#FEFEFE" fill-rule="nonzero" mask="url(#h)"/></g><g transform="translate(0 -2.576)"><mask id="j" fill="#fff"><use xlink:href="#i"/></mask><path d="M147.72 70.02c0-1.007-.02-1.836-.082-2.645h1.571l.102 1.612h.04c.489-.925 1.618-1.83 3.23-1.83 1.352 0 3.452.803 3.452 4.154v5.827h-1.775V71.51c0-1.57-.59-2.883-2.262-2.883-1.17 0-2.075.83-2.38 1.816a2.563 2.563 0 00-.122.828v5.868h-1.775V70.02z" fill="#FEFEFE" fill-rule="nonzero" mask="url(#j)"/></g><g transform="translate(0 -2.576)"><mask id="l" fill="#fff"><use xlink:href="#k"/></mask><path d="M158.929 77.136h1.774v-9.763h-1.774v9.763zm1.973-12.504c.025.605-.422 1.088-1.13 1.088-.625 0-1.067-.483-1.067-1.088a1.08 1.08 0 011.109-1.108c.666 0 1.088.483 1.088 1.108z" fill="#FEFEFE" fill-rule="nonzero" mask="url(#l)"/></g><g transform="translate(0 -2.576)"><mask id="n" fill="#fff"><use xlink:href="#m"/></mask><path d="M169.849 71.31c.02-1.128-.463-2.883-2.461-2.883-1.795 0-2.583 1.653-2.726 2.884h5.187zm-5.207 1.272c.04 2.4 1.576 3.391 3.35 3.391 1.272 0 2.04-.224 2.706-.508l.3 1.27c-.625.286-1.693.606-3.25.606-3.004 0-4.8-1.978-4.8-4.922s1.735-5.263 4.577-5.263c3.188 0 4.037 2.802 4.037 4.597 0 .366-.04.646-.06.829h-6.86z" fill="#FEFEFE" fill-rule="nonzero" mask="url(#n)"/></g><g transform="translate(0 -2.576)"><mask id="p" fill="#fff"><use xlink:href="#o"/></mask><path d="M181.942 74.476c0 1.012.02 1.897.082 2.665h-1.571l-.102-1.597h-.04c-.469.788-1.496 1.815-3.23 1.815-1.535 0-3.37-.844-3.37-4.27v-5.711h1.774v5.405c0 1.856.564 3.107 2.181 3.107 1.19 0 2.019-.829 2.34-1.617.1-.26.162-.58.162-.905v-5.99h1.774v7.098z" fill="#FEFEFE" fill-rule="nonzero" mask="url(#p)"/></g><g transform="translate(0 -2.576)"><mask id="r" fill="#fff"><use xlink:href="#q"/></mask><path d="M184.897 70.422c0-1.15-.02-2.136-.081-3.046h1.556l.06 1.917h.077c.447-1.312 1.515-2.14 2.705-2.14.203 0 .346.02.503.065v1.673a2.611 2.611 0 00-.605-.06c-1.25 0-2.135.945-2.38 2.277-.04.244-.08.524-.08.829v5.202h-1.755v-6.717z" fill="#FEFEFE" fill-rule="nonzero" mask="url(#r)"/></g><g transform="translate(0 -2.576)"><mask id="t" fill="#fff"><use xlink:href="#s"/></mask><path d="M191.26 75.325c.524.341 1.454.707 2.34.707 1.29 0 1.896-.646 1.896-1.454 0-.844-.504-1.312-1.815-1.795-1.755-.625-2.584-1.591-2.584-2.761 0-1.576 1.272-2.868 3.372-2.868.986 0 1.856.285 2.4.605l-.443 1.292a3.805 3.805 0 00-1.998-.565c-1.047 0-1.637.606-1.637 1.333 0 .808.59 1.17 1.86 1.652 1.694.646 2.558 1.495 2.558 2.944 0 1.719-1.332 2.924-3.65 2.924-1.068 0-2.06-.26-2.741-.661l.442-1.353z" fill="#FEFEFE" fill-rule="nonzero" mask="url(#t)"/></g><g transform="translate(0 -2.576)"><mask id="v" fill="#fff"><use xlink:href="#u"/></mask><path d="M210.738 76.778c-.463.239-1.49.564-2.802.564-2.944 0-4.86-1.998-4.86-4.983 0-3.005 2.053-5.186 5.241-5.186 1.048 0 1.978.264 2.461.503l-.401 1.373c-.427-.24-1.093-.463-2.06-.463-2.242 0-3.447 1.653-3.447 3.692 0 2.262 1.45 3.65 3.386 3.65 1.007 0 1.673-.259 2.177-.483l.305 1.333z" fill="#FEFEFE" fill-rule="nonzero" mask="url(#v)"/></g><g transform="translate(0 -2.576)"><mask id="x" fill="#fff"><use xlink:href="#w"/></mask><path d="M213.916 72.279c0 2.135 1.23 3.752 2.964 3.752 1.698 0 2.97-1.596 2.97-3.793 0-1.653-.834-3.753-2.93-3.753-2.1 0-3.004 1.938-3.004 3.794m7.744-.102c0 3.61-2.502 5.186-4.861 5.186-2.644 0-4.678-1.937-4.678-5.023 0-3.27 2.135-5.187 4.84-5.187 2.802 0 4.699 2.04 4.699 5.024" fill="#FEFEFE" fill-rule="nonzero" mask="url(#x)"/></g><g transform="translate(0 -2.576)"><mask id="z" fill="#fff"><use xlink:href="#y"/></mask><path d="M223.911 70.02c0-1.007-.02-1.836-.081-2.645h1.571l.102 1.612h.04c.489-.925 1.618-1.83 3.23-1.83 1.352 0 3.452.803 3.452 4.154v5.827h-1.775V71.51c0-1.57-.59-2.883-2.262-2.883-1.17 0-2.075.83-2.38 1.816a2.563 2.563 0 00-.122.828v5.868h-1.775V70.02z" fill="#FEFEFE" fill-rule="nonzero" mask="url(#z)"/></g><g transform="translate(0 -2.576)"><mask id="B" fill="#fff"><use xlink:href="#A"/></mask><path d="M234.88 75.325c.524.341 1.454.707 2.34.707 1.29 0 1.896-.646 1.896-1.454 0-.844-.504-1.312-1.815-1.795-1.755-.625-2.584-1.591-2.584-2.761 0-1.576 1.272-2.868 3.367-2.868.991 0 1.86.285 2.405.605l-.443 1.292a3.805 3.805 0 00-1.998-.565c-1.047 0-1.637.606-1.637 1.333 0 .808.59 1.17 1.86 1.652 1.694.646 2.558 1.495 2.558 2.944 0 1.719-1.332 2.924-3.65 2.924-1.068 0-2.06-.26-2.741-.661l.442-1.353z" fill="#FEFEFE" fill-rule="nonzero" mask="url(#B)"/></g><g transform="translate(0 -2.576)"><mask id="D" fill="#fff"><use xlink:href="#C"/></mask><path d="M249.313 71.31c.02-1.128-.463-2.883-2.461-2.883-1.795 0-2.583 1.653-2.726 2.884h5.187zm-5.207 1.272c.04 2.4 1.576 3.391 3.35 3.391 1.272 0 2.04-.224 2.706-.508l.3 1.27c-.626.286-1.693.606-3.25.606-3.004 0-4.8-1.978-4.8-4.922s1.735-5.263 4.577-5.263c3.188 0 4.037 2.802 4.037 4.597 0 .366-.04.646-.06.829h-6.86z" fill="#FEFEFE" fill-rule="nonzero" mask="url(#D)"/></g><g transform="translate(0 -2.576)"><mask id="F" fill="#fff"><use xlink:href="#E"/></mask><path d="M253.236 77.136h1.774v-9.763h-1.774v9.763zm1.978-12.504c.02.605-.422 1.088-1.13 1.088-.625 0-1.067-.483-1.067-1.088a1.08 1.08 0 011.108-1.108c.667 0 1.089.483 1.089 1.108z" fill="#FEFEFE" fill-rule="nonzero" mask="url(#F)"/></g><g transform="translate(0 -2.576)"><mask id="H" fill="#fff"><use xlink:href="#G"/></mask><path fill="#FEFEFE" fill-rule="nonzero" mask="url(#H)" d="M257.96 77.14h1.774V62.818h-1.775z"/></g><g transform="translate(0 -2.576)"><mask id="J" fill="#fff"><use xlink:href="#I"/></mask><path d="M262.484 75.325c.524.341 1.454.707 2.34.707 1.29 0 1.896-.646 1.896-1.454 0-.844-.504-1.312-1.815-1.795-1.755-.625-2.583-1.591-2.583-2.761 0-1.576 1.27-2.868 3.366-2.868.991 0 1.86.285 2.405.605l-.443 1.292a3.805 3.805 0 00-1.998-.565c-1.047 0-1.637.606-1.637 1.333 0 .808.59 1.17 1.86 1.652 1.694.646 2.558 1.495 2.558 2.944 0 1.719-1.332 2.924-3.65 2.924-1.068 0-2.06-.26-2.741-.661l.442-1.353z" fill="#FEFEFE" fill-rule="nonzero" mask="url(#J)"/></g><g transform="translate(0 -2.576)"><mask id="L" fill="#fff"><use xlink:href="#K"/></mask><path d="M274.823 75.003a6.236 6.236 0 003.148.884c1.795 0 2.842-.945 2.842-2.318 0-1.272-.722-1.999-2.562-2.7-2.217-.788-3.59-1.938-3.59-3.855 0-2.12 1.754-3.691 4.398-3.691 1.393 0 2.4.32 3.005.666l-.483 1.429a5.45 5.45 0 00-2.583-.646c-1.856 0-2.563 1.114-2.563 2.039 0 1.271.83 1.897 2.705 2.624 2.299.89 3.468 1.998 3.468 3.991 0 2.1-1.55 3.916-4.76 3.916-1.311 0-2.74-.382-3.467-.865l.442-1.474z" fill="#FEFEFE" fill-rule="nonzero" mask="url(#L)"/></g><g transform="translate(0 -2.576)"><mask id="N" fill="#fff"><use xlink:href="#M"/></mask><path d="M291.677 71.492l-1.332-3.915c-.3-.885-.504-1.693-.707-2.482h-.04a41.93 41.93 0 01-.682 2.467l-1.338 3.93h4.099zm-4.46 1.373l-1.413 4.276h-1.815l4.622-13.596h2.115l4.642 13.596h-1.876l-1.454-4.276h-4.82z" fill="#FEFEFE" fill-rule="nonzero" mask="url(#N)"/></g><g transform="translate(0 -2.576)"><mask id="P" fill="#fff"><use xlink:href="#O"/></mask><path d="M92.582 77.833h-28.49a2.199 2.199 0 01-2.176-2.177c0-1.19.991-2.176 2.176-2.176h28.49c1.185 0 2.176.987 2.176 2.176-.198 1.383-.991 2.177-2.176 2.177" fill="#31BCE5" fill-rule="nonzero" mask="url(#P)"/></g><g transform="translate(0 -2.576)"><mask id="R" fill="#fff"><use xlink:href="#Q"/></mask><path d="M92.582 55.083h-28.49a2.195 2.195 0 01-2.176-2.176 2.19 2.19 0 012.176-2.171h28.49a2.19 2.19 0 012.176 2.17c0 1.19-.991 2.177-2.176 2.177" fill="#31BCE5" fill-rule="nonzero" mask="url(#R)"/></g><g transform="translate(0 -2.576)"><mask id="T" fill="#fff"><use xlink:href="#S"/></mask><path d="M92.582 66.357h-28.49a2.199 2.199 0 01-2.176-2.176c0-1.185.991-2.176 2.176-2.176h28.49c1.185 0 2.176.991 2.176 2.176-.198 1.388-.991 2.176-2.176 2.176" fill="#31BCE5" fill-rule="nonzero" mask="url(#T)"/></g><g transform="translate(0 -2.576)"><mask id="V" fill="#fff"><use xlink:href="#U"/></mask><path fill="#FEFEFE" fill-rule="nonzero" mask="url(#V)" d="M41.149 33.123h-30.27V3.25H-.002v74.583h10.881V43.608h30.27v34.225H52.03V3.25H41.15z"/></g><g transform="translate(0 -2.576)"><mask id="X" fill="#fff"><use xlink:href="#W"/></mask><path d="M87.832 22.044c-2.176-1.19-3.757-1.58-6.528-2.374-2.965-.793-5.141-1.582-6.53-2.37-.986-.595-1.576-1.586-1.576-2.97 0-2.969 2.172-4.748 5.736-4.748 2.964 0 5.14 1.581 6.722 4.947l.397 1.19 6.132-3.168-.397-.991c-2.176-5.538-6.92-8.899-13.057-8.899-3.956 0-7.119.987-9.295 3.361-2.375 2.177-3.56 4.948-3.56 8.507.199 4.75 1.78 7.714 5.538 9.493 2.374 1.19 3.757 1.587 6.33 2.182 2.771.59 3.56.986 5.34 1.581.792.198 1.19.595 1.387.788.397.397.992 1.19.992 2.771 0 4.948-4.16 5.736-6.732 5.736-4.546 0-7.317-2.573-8.7-7.714l-.397-1.184-6.529 2.567.199.992c1.58 7.714 7.317 12.264 15.427 12.264 4.352 0 7.718-1.19 10.093-3.559 2.374-2.374 3.56-5.542 3.56-9.895.396-4.154-1.186-6.727-4.552-8.507" fill="#FEFEFE" fill-rule="nonzero" mask="url(#X)"/></g></g></svg>