<?xml version="1.0" encoding="UTF-8"?>
<svg width="299px" height="79px" viewBox="0 0 299 79" version="1.1" xmlns="http://www.w3.org/2000/svg" xmlns:xlink="http://www.w3.org/1999/xlink">
    <!-- Generator: Sketch 56.3 (81716) - https://sketch.com -->
    <title>logo</title>
    <desc>Created with Sketch.</desc>
    <defs>
        <polygon id="path-1" points="0 81.3559322 298.347458 81.3559322 298.347458 2.65932203 0 2.65932203"></polygon>
        <polygon id="path-3" points="0 81.3559322 298.347458 81.3559322 298.347458 2.65932203 0 2.65932203"></polygon>
        <polygon id="path-5" points="0 81.3559322 298.347458 81.3559322 298.347458 2.65932203 0 2.65932203"></polygon>
        <polygon id="path-7" points="0 81.3559322 298.347458 81.3559322 298.347458 2.65932203 0 2.65932203"></polygon>
        <polygon id="path-9" points="0 81.3559322 298.347458 81.3559322 298.347458 2.65932203 0 2.65932203"></polygon>
        <polygon id="path-11" points="0 81.3559322 298.347458 81.3559322 298.347458 2.65932203 0 2.65932203"></polygon>
        <polygon id="path-13" points="0 81.3559322 298.347458 81.3559322 298.347458 2.65932203 0 2.65932203"></polygon>
        <polygon id="path-15" points="0 81.3559322 298.347458 81.3559322 298.347458 2.65932203 0 2.65932203"></polygon>
        <polygon id="path-17" points="0 81.3559322 298.347458 81.3559322 298.347458 2.65932203 0 2.65932203"></polygon>
        <polygon id="path-19" points="0 81.3559322 298.347458 81.3559322 298.347458 2.65932203 0 2.65932203"></polygon>
        <polygon id="path-21" points="0 81.3559322 298.347458 81.3559322 298.347458 2.65932203 0 2.65932203"></polygon>
        <polygon id="path-23" points="0 81.3559322 298.347458 81.3559322 298.347458 2.65932203 0 2.65932203"></polygon>
        <polygon id="path-25" points="0 81.3559322 298.347458 81.3559322 298.347458 2.65932203 0 2.65932203"></polygon>
        <polygon id="path-27" points="0 81.3559322 298.347458 81.3559322 298.347458 2.65932203 0 2.65932203"></polygon>
        <polygon id="path-29" points="0 81.3559322 298.347458 81.3559322 298.347458 2.65932203 0 2.65932203"></polygon>
        <polygon id="path-31" points="0 81.3559322 298.347458 81.3559322 298.347458 2.65932203 0 2.65932203"></polygon>
        <polygon id="path-33" points="0 81.3559322 298.347458 81.3559322 298.347458 2.65932203 0 2.65932203"></polygon>
        <polygon id="path-35" points="0 81.3559322 298.347458 81.3559322 298.347458 2.65932203 0 2.65932203"></polygon>
        <polygon id="path-37" points="0 81.3559322 298.347458 81.3559322 298.347458 2.65932203 0 2.65932203"></polygon>
        <polygon id="path-39" points="0 81.3559322 298.347458 81.3559322 298.347458 2.65932203 0 2.65932203"></polygon>
        <polygon id="path-41" points="0 81.3559322 298.347458 81.3559322 298.347458 2.65932203 0 2.65932203"></polygon>
        <polygon id="path-43" points="0 81.3559322 298.347458 81.3559322 298.347458 2.65932203 0 2.65932203"></polygon>
        <polygon id="path-45" points="0 81.3559322 298.347458 81.3559322 298.347458 2.65932203 0 2.65932203"></polygon>
        <polygon id="path-47" points="0 81.3559322 298.347458 81.3559322 298.347458 2.65932203 0 2.65932203"></polygon>
        <polygon id="path-49" points="0 81.3559322 298.347458 81.3559322 298.347458 2.65932203 0 2.65932203"></polygon>
    </defs>
    <g id="Page-1" stroke="none" stroke-width="1" fill="none" fill-rule="evenodd">
        <g id="logo" transform="translate(0.000000, -5.000000)">
            <polygon id="Fill-1" fill="#FEFEFE" fill-rule="nonzero" points="113.66339 35.6659322 113.66339 43.8930508 123.176949 43.8930508 123.176949 35.6659322 125.739661 35.6659322 125.739661 55.3286441 123.176949 55.3286441 123.176949 46.11 113.66339 46.11 113.66339 55.3286441 111.126102 55.3286441 111.126102 35.6659322"></polygon>
            <g id="Group-50" transform="translate(0.000000, 2.423898)">
                <path d="M130.042373,51.3884746 C130.042373,50.3105085 130.774576,49.5528814 131.791525,49.5528814 C132.813559,49.5528814 133.515254,50.3105085 133.515254,51.3884746 C133.515254,52.4410169 132.844068,53.2240678 131.761017,53.2240678 C130.744068,53.2240678 130.042373,52.4410169 130.042373,51.3884746" id="Fill-2" fill="#FEFEFE" fill-rule="nonzero"></path>
                <path d="M143.789492,49.8122034 C144.928475,50.5138983 146.591186,51.0986441 148.340339,51.0986441 C150.938644,51.0986441 152.453898,49.7257627 152.453898,47.7427119 C152.453898,45.9020339 151.406441,44.8545763 148.752203,43.8325424 C145.538644,42.6986441 143.555593,41.0308475 143.555593,38.2647458 C143.555593,35.1986441 146.092881,32.920678 149.91661,32.920678 C151.930169,32.920678 153.389492,33.3884746 154.264068,33.8867797 L153.562373,35.9562712 C152.921695,35.6054237 151.609831,35.020678 149.825085,35.020678 C147.145424,35.020678 146.12339,36.6274576 146.12339,37.9698305 C146.12339,39.8054237 147.318305,40.7105085 150.033559,41.7630508 C153.358983,43.0444068 155.052203,44.6511864 155.052203,47.539322 C155.052203,50.5698305 152.804746,53.1986441 148.162373,53.1986441 C146.270847,53.1986441 144.196271,52.6444068 143.148814,51.9427119 L143.789492,49.8122034 Z" id="Fill-4" fill="#FEFEFE" fill-rule="nonzero"></path>
                <path d="M169.089153,52.3794915 C168.417966,52.730339 166.93322,53.1981356 165.03661,53.1981356 C160.775593,53.1981356 158.004407,50.31 158.004407,45.9930508 C158.004407,41.6455932 160.978983,38.4981356 165.590847,38.4981356 C167.106102,38.4981356 168.448475,38.8744068 169.150169,39.2252542 L168.565424,41.2083051 C167.950169,40.8574576 166.989153,40.5371186 165.590847,40.5371186 C162.351864,40.5371186 160.602712,42.9320339 160.602712,45.8761017 C160.602712,49.1405085 162.702712,51.1540678 165.499322,51.1540678 C166.963729,51.1540678 167.924746,50.7777966 168.651864,50.4574576 L169.089153,52.3794915 Z" id="Fill-6" fill="#FEFEFE" fill-rule="nonzero"></path>
                <path d="M172.68661,32.1940678 L175.254407,32.1940678 L175.254407,41.0008475 L175.310339,41.0008475 C175.722203,40.2737288 176.362881,39.6330508 177.145932,39.1957627 C177.908644,38.7584746 178.813729,38.4635593 179.774746,38.4635593 C181.671356,38.4635593 184.706949,39.6330508 184.706949,44.5042373 L184.706949,52.9042373 L182.139153,52.9042373 L182.139153,44.7991525 C182.139153,42.5211864 181.29,40.5940678 178.869661,40.5940678 C177.206949,40.5940678 175.895085,41.7635593 175.427288,43.1618644 C175.279831,43.5127119 175.254407,43.8889831 175.254407,44.3872881 L175.254407,52.9042373 L172.68661,52.9042373 L172.68661,32.1940678 Z" id="Fill-8" fill="#FEFEFE" fill-rule="nonzero"></path>
                <path d="M201.285763,49.0550847 C201.285763,50.5144068 201.316271,51.8008475 201.402712,52.9042373 L199.129831,52.9042373 L198.982373,50.6008475 L198.926441,50.6008475 C198.250169,51.7398305 196.765424,53.2245763 194.258644,53.2245763 C192.041695,53.2245763 189.382373,52.0042373 189.382373,47.0415254 L189.382373,38.7838983 L191.950169,38.7838983 L191.950169,46.6042373 C191.950169,49.2889831 192.768814,51.0991525 195.102712,51.0991525 C196.826441,51.0991525 198.016271,49.9042373 198.484068,48.7652542 C198.631525,48.3838983 198.717966,47.9161017 198.717966,47.4533898 L198.717966,38.7838983 L201.285763,38.7838983 L201.285763,49.0550847 Z" id="Fill-10" fill="#FEFEFE" fill-rule="nonzero"></path>
                <path d="M206.139661,42.6071186 C206.139661,41.1477966 206.109153,39.9528814 206.022712,38.7884746 L208.265085,38.7884746 L208.387119,41.0613559 L208.473559,41.0613559 C209.261695,39.7189831 210.573559,38.4681356 212.907458,38.4681356 C214.829492,38.4681356 216.293898,39.6325424 216.904068,41.2952542 L216.96,41.2952542 C217.397288,40.5071186 217.95661,39.8969492 218.536271,39.4545763 C219.380339,38.8138983 220.315932,38.4681356 221.658305,38.4681356 C223.524407,38.4681356 226.295593,39.6884746 226.295593,44.5901695 L226.295593,52.9037288 L223.788814,52.9037288 L223.788814,44.9105085 C223.788814,42.200339 222.797288,40.5681356 220.727797,40.5681356 C219.268475,40.5681356 218.129492,41.6461017 217.692203,42.9020339 C217.575254,43.2477966 217.488814,43.7155932 217.488814,44.1833898 L217.488814,52.9037288 L214.976949,52.9037288 L214.976949,44.4427119 C214.976949,42.200339 213.985424,40.5681356 212.032881,40.5681356 C210.426102,40.5681356 209.261695,41.8494915 208.854915,43.1359322 C208.707458,43.5122034 208.646441,43.9494915 208.646441,44.3867797 L208.646441,52.9037288 L206.139661,52.9037288 L206.139661,42.6071186 Z" id="Fill-12" fill="#FEFEFE" fill-rule="nonzero"></path>
                <path d="M238.505085,45.700678 C235.70339,45.639661 232.525424,46.1379661 232.525424,48.8786441 C232.525424,50.5413559 233.633898,51.3294915 234.945763,51.3294915 C236.786441,51.3294915 237.950847,50.1650847 238.357627,48.9701695 C238.449153,48.7057627 238.505085,48.4108475 238.505085,48.1515254 L238.505085,45.700678 Z M238.886441,52.9057627 L238.683051,51.1261017 L238.591525,51.1261017 C237.80339,52.2345763 236.288136,53.2261017 234.274576,53.2261017 C231.416949,53.2261017 229.957627,51.2125424 229.957627,49.1735593 C229.957627,45.7566102 232.99322,43.8905085 238.449153,43.9210169 L238.449153,43.6311864 C238.449153,42.4616949 238.123729,40.3616949 235.235593,40.3616949 C233.923729,40.3616949 232.555932,40.7684746 231.559322,41.4091525 L230.979661,39.7210169 C232.149153,38.9633898 233.837288,38.4650847 235.616949,38.4650847 C239.933898,38.4650847 240.986441,41.4091525 240.986441,44.2413559 L240.986441,49.519322 C240.986441,50.7447458 241.042373,51.9447458 241.220339,52.9057627 L238.886441,52.9057627 Z" id="Fill-14" fill="#FEFEFE" fill-rule="nonzero"></path>
                <path d="M255.783051,52.3794915 C255.111864,52.730339 253.627119,53.1981356 251.730508,53.1981356 C247.469492,53.1981356 244.698305,50.31 244.698305,45.9930508 C244.698305,41.6455932 247.672881,38.4981356 252.284746,38.4981356 C253.8,38.4981356 255.142373,38.8744068 255.844068,39.2252542 L255.259322,41.2083051 C254.644068,40.8574576 253.683051,40.5371186 252.284746,40.5371186 C249.045763,40.5371186 247.29661,42.9320339 247.29661,45.8761017 C247.29661,49.1405085 249.39661,51.1540678 252.19322,51.1540678 C253.657627,51.1540678 254.618644,50.7777966 255.345763,50.4574576 L255.783051,52.3794915 Z" id="Fill-16" fill="#FEFEFE" fill-rule="nonzero"></path>
                <path d="M259.383051,32.1940678 L261.950847,32.1940678 L261.950847,41.0008475 L262.00678,41.0008475 C262.418644,40.2737288 263.059322,39.6330508 263.847458,39.1957627 C264.605085,38.7584746 265.510169,38.4635593 266.471186,38.4635593 C268.367797,38.4635593 271.40339,39.6330508 271.40339,44.5042373 L271.40339,52.9042373 L268.835593,52.9042373 L268.835593,44.7991525 C268.835593,42.5211864 267.986441,40.5940678 265.566102,40.5940678 C263.90339,40.5940678 262.591525,41.7635593 262.123729,43.1618644 C261.981356,43.5127119 261.950847,43.8889831 261.950847,44.3872881 L261.950847,52.9042373 L259.383051,52.9042373 L259.383051,32.1940678 Z" id="Fill-18" fill="#FEFEFE" fill-rule="nonzero"></path>
                <path d="M285.122034,44.4742373 C285.152542,42.8420339 284.450847,40.3047458 281.562712,40.3047458 C278.969492,40.3047458 277.830508,42.6945763 277.622034,44.4742373 L285.122034,44.4742373 Z M277.59661,46.3098305 C277.652542,49.7827119 279.869492,51.2115254 282.437288,51.2115254 C284.272881,51.2115254 285.386441,50.8911864 286.347458,50.4844068 L286.784746,52.32 C285.879661,52.7318644 284.333898,53.199661 282.086441,53.199661 C277.738983,53.199661 275.145763,50.3369492 275.145763,46.0759322 C275.145763,41.82 277.652542,38.4640678 281.766102,38.4640678 C286.377966,38.4640678 287.60339,42.5216949 287.60339,45.1149153 C287.60339,45.6386441 287.542373,46.0505085 287.511864,46.3098305 L277.59661,46.3098305 Z" id="Fill-20" fill="#FEFEFE" fill-rule="nonzero"></path>
                <path d="M291.373729,43.190339 C291.373729,41.5276271 291.34322,40.0988136 291.25678,38.7869492 L293.499153,38.7869492 L293.590678,41.5581356 L293.707627,41.5581356 C294.348305,39.6615254 295.894068,38.4666102 297.617797,38.4666102 C297.907627,38.4666102 298.111017,38.4971186 298.344915,38.5530508 L298.344915,40.9733898 C298.080508,40.9174576 297.821186,40.8869492 297.470339,40.8869492 C295.660169,40.8869492 294.378814,42.2547458 294.027966,44.1818644 C293.966949,44.5327119 293.911017,44.9394915 293.911017,45.3767797 L293.911017,52.9072881 L291.373729,52.9072881 L291.373729,43.190339 Z" id="Fill-22" fill="#FEFEFE" fill-rule="nonzero"></path>
                <g id="Fill-24-Clipped">
                    <mask id="mask-2" fill="white">
                        <use xlink:href="#path-1"></use>
                    </mask>
                    <g id="path-1"></g>
                    <path d="M110.379661,77.1355932 L112.154237,77.1355932 L112.154237,67.3728814 L110.379661,67.3728814 L110.379661,77.1355932 Z M112.357627,64.6322034 C112.377966,65.2372881 111.935593,65.720339 111.228814,65.720339 C110.60339,65.720339 110.161017,65.2372881 110.161017,64.6322034 C110.161017,64.0067797 110.623729,63.5237288 111.269492,63.5237288 C111.935593,63.5237288 112.357627,64.0067797 112.357627,64.6322034 L112.357627,64.6322034 Z" id="Fill-24" fill="#FEFEFE" fill-rule="nonzero" mask="url(#mask-2)"></path>
                </g>
                <g id="Fill-26-Clipped">
                    <mask id="mask-4" fill="white">
                        <use xlink:href="#path-3"></use>
                    </mask>
                    <g id="path-1"></g>
                    <path d="M115.105932,70.0194915 C115.105932,69.0127119 115.085593,68.1838983 115.024576,67.3754237 L116.595763,67.3754237 L116.697458,68.9872881 L116.738136,68.9872881 C117.226271,68.0618644 118.355085,67.1567797 119.966949,67.1567797 C121.319492,67.1567797 123.419492,67.9601695 123.419492,71.3110169 L123.419492,77.1381356 L121.644915,77.1381356 L121.644915,71.509322 C121.644915,69.9381356 121.055085,68.6262712 119.382203,68.6262712 C118.212712,68.6262712 117.307627,69.4550847 117.002542,70.4415254 C116.921186,70.6652542 116.880508,70.970339 116.880508,71.270339 L116.880508,77.1381356 L115.105932,77.1381356 L115.105932,70.0194915 Z" id="Fill-26" fill="#FEFEFE" fill-rule="nonzero" mask="url(#mask-4)"></path>
                </g>
                <g id="Fill-27-Clipped">
                    <mask id="mask-6" fill="white">
                        <use xlink:href="#path-5"></use>
                    </mask>
                    <g id="path-1"></g>
                    <path d="M132.889831,71.2286441 C132.889831,70.9235593 132.869492,70.6642373 132.788136,70.4201695 C132.467797,69.3930508 131.598305,68.5489831 130.30678,68.5489831 C128.613559,68.5489831 127.40339,69.9777966 127.40339,72.2405085 C127.40339,74.1523729 128.369492,75.7489831 130.286441,75.7489831 C131.374576,75.7489831 132.366102,75.0625424 132.747458,73.9337288 C132.849153,73.6286441 132.889831,73.2879661 132.889831,72.9828814 L132.889831,71.2286441 Z M134.725424,67.3744068 C134.684746,68.0811864 134.644068,68.869322 134.644068,70.0591525 L134.644068,75.7286441 C134.644068,77.9659322 134.201695,79.3388136 133.250847,80.1879661 C132.305085,81.0727119 130.932203,81.3574576 129.701695,81.3574576 C128.532203,81.3574576 127.240678,81.0727119 126.452542,80.5489831 L126.9,79.1964407 C127.545763,79.5981356 128.552542,79.9642373 129.762712,79.9642373 C131.577966,79.9642373 132.910169,79.0184746 132.910169,76.5523729 L132.910169,75.4642373 L132.869492,75.4642373 C132.325424,76.3744068 131.277966,77.1015254 129.762712,77.1015254 C127.342373,77.1015254 125.608475,75.0422034 125.608475,72.3371186 C125.608475,69.0320339 127.764407,67.1557627 130.00678,67.1557627 C131.7,67.1557627 132.625424,68.0455932 133.052542,68.8489831 L133.09322,68.8489831 L133.174576,67.3744068 L134.725424,67.3744068 Z" id="Fill-27" fill="#FEFEFE" fill-rule="nonzero" mask="url(#mask-6)"></path>
                </g>
                <g id="Fill-28-Clipped">
                    <mask id="mask-8" fill="white">
                        <use xlink:href="#path-7"></use>
                    </mask>
                    <g id="path-1"></g>
                    <path d="M144.219153,63.159661 L141.758136,66.0427119 L140.486949,66.0427119 L142.261525,63.159661 L144.219153,63.159661 Z M143.797119,71.3105085 C143.817458,70.1816949 143.334407,68.4274576 141.336102,68.4274576 C139.541186,68.4274576 138.753051,70.08 138.610678,71.3105085 L143.797119,71.3105085 Z M138.590339,72.5816949 C138.631017,74.9816949 140.16661,75.9732203 141.941186,75.9732203 C143.212373,75.9732203 143.980169,75.7494915 144.641186,75.4647458 L144.946271,76.7359322 C144.320847,77.020678 143.253051,77.3410169 141.697119,77.3410169 C138.692034,77.3410169 136.897119,75.3630508 136.897119,72.4189831 C136.897119,69.4749153 138.631017,67.1562712 141.47339,67.1562712 C144.661525,67.1562712 145.510678,69.9579661 145.510678,71.7528814 C145.510678,72.1189831 145.47,72.3986441 145.449661,72.5816949 L138.590339,72.5816949 Z" id="Fill-28" fill="#FEFEFE" fill-rule="nonzero" mask="url(#mask-8)"></path>
                </g>
                <g id="Fill-29-Clipped">
                    <mask id="mask-10" fill="white">
                        <use xlink:href="#path-9"></use>
                    </mask>
                    <g id="path-1"></g>
                    <path d="M147.719492,70.0194915 C147.719492,69.0127119 147.699153,68.1838983 147.638136,67.3754237 L149.209322,67.3754237 L149.311017,68.9872881 L149.351695,68.9872881 C149.839831,68.0618644 150.968644,67.1567797 152.580508,67.1567797 C153.933051,67.1567797 156.033051,67.9601695 156.033051,71.3110169 L156.033051,77.1381356 L154.258475,77.1381356 L154.258475,71.509322 C154.258475,69.9381356 153.668644,68.6262712 151.995763,68.6262712 C150.826271,68.6262712 149.921186,69.4550847 149.616102,70.4415254 C149.534746,70.6652542 149.494068,70.970339 149.494068,71.270339 L149.494068,77.1381356 L147.719492,77.1381356 L147.719492,70.0194915 Z" id="Fill-29" fill="#FEFEFE" fill-rule="nonzero" mask="url(#mask-10)"></path>
                </g>
                <g id="Fill-30-Clipped">
                    <mask id="mask-12" fill="white">
                        <use xlink:href="#path-11"></use>
                    </mask>
                    <g id="path-1"></g>
                    <path d="M158.928814,77.1355932 L160.70339,77.1355932 L160.70339,67.3728814 L158.928814,67.3728814 L158.928814,77.1355932 Z M160.901695,64.6322034 C160.927119,65.2372881 160.479661,65.720339 159.772881,65.720339 C159.147458,65.720339 158.705085,65.2372881 158.705085,64.6322034 C158.705085,64.0067797 159.167797,63.5237288 159.813559,63.5237288 C160.479661,63.5237288 160.901695,64.0067797 160.901695,64.6322034 L160.901695,64.6322034 Z" id="Fill-30" fill="#FEFEFE" fill-rule="nonzero" mask="url(#mask-12)"></path>
                </g>
                <g id="Fill-31-Clipped">
                    <mask id="mask-14" fill="white">
                        <use xlink:href="#path-13"></use>
                    </mask>
                    <g id="path-1"></g>
                    <path d="M169.848814,71.3105085 C169.869153,70.1816949 169.386102,68.4274576 167.387797,68.4274576 C165.592881,68.4274576 164.804746,70.08 164.662373,71.3105085 L169.848814,71.3105085 Z M164.642034,72.5816949 C164.682712,74.9816949 166.218305,75.9732203 167.992881,75.9732203 C169.264068,75.9732203 170.031864,75.7494915 170.697966,75.4647458 L170.997966,76.7359322 C170.372542,77.020678 169.304746,77.3410169 167.748814,77.3410169 C164.743729,77.3410169 162.948814,75.3630508 162.948814,72.4189831 C162.948814,69.4749153 164.682712,67.1562712 167.525085,67.1562712 C170.71322,67.1562712 171.562373,69.9579661 171.562373,71.7528814 C171.562373,72.1189831 171.521695,72.3986441 171.501356,72.5816949 L164.642034,72.5816949 Z" id="Fill-31" fill="#FEFEFE" fill-rule="nonzero" mask="url(#mask-14)"></path>
                </g>
                <g id="Fill-32-Clipped">
                    <mask id="mask-16" fill="white">
                        <use xlink:href="#path-15"></use>
                    </mask>
                    <g id="path-1"></g>
                    <path d="M181.942373,74.4762712 C181.942373,75.4881356 181.962712,76.3728814 182.023729,77.140678 L180.452542,77.140678 L180.350847,75.5440678 L180.310169,75.5440678 C179.842373,76.3322034 178.815254,77.359322 177.081356,77.359322 C175.545763,77.359322 173.710169,76.5152542 173.710169,73.0881356 L173.710169,67.3779661 L175.484746,67.3779661 L175.484746,72.7830508 C175.484746,74.6389831 176.049153,75.8898305 177.666102,75.8898305 C178.855932,75.8898305 179.684746,75.0610169 180.005085,74.2728814 C180.10678,74.0135593 180.167797,73.6932203 180.167797,73.3677966 L180.167797,67.3779661 L181.942373,67.3779661 L181.942373,74.4762712 Z" id="Fill-32" fill="#FEFEFE" fill-rule="nonzero" mask="url(#mask-16)"></path>
                </g>
                <g id="Fill-33-Clipped">
                    <mask id="mask-18" fill="white">
                        <use xlink:href="#path-17"></use>
                    </mask>
                    <g id="path-1"></g>
                    <path d="M184.897119,70.4216949 C184.897119,69.2725424 184.87678,68.2861017 184.815763,67.3759322 L186.371695,67.3759322 L186.432712,69.2928814 L186.508983,69.2928814 C186.956441,67.9810169 188.024237,67.1522034 189.214068,67.1522034 C189.417458,67.1522034 189.559831,67.1725424 189.717458,67.2183051 L189.717458,68.8911864 C189.539492,68.8505085 189.356441,68.8301695 189.112373,68.8301695 C187.861525,68.8301695 186.97678,69.7759322 186.732712,71.1081356 C186.692034,71.3522034 186.651356,71.6318644 186.651356,71.9369492 L186.651356,77.1386441 L184.897119,77.1386441 L184.897119,70.4216949 Z" id="Fill-33" fill="#FEFEFE" fill-rule="nonzero" mask="url(#mask-18)"></path>
                </g>
                <g id="Fill-34-Clipped">
                    <mask id="mask-20" fill="white">
                        <use xlink:href="#path-19"></use>
                    </mask>
                    <g id="path-1"></g>
                    <path d="M191.260169,75.3254237 C191.783898,75.6661017 192.714407,76.0322034 193.599153,76.0322034 C194.890678,76.0322034 195.495763,75.3864407 195.495763,74.5779661 C195.495763,73.7338983 194.992373,73.2661017 193.680508,72.7830508 C191.926271,72.1576271 191.097458,71.1915254 191.097458,70.0220339 C191.097458,68.4457627 192.368644,67.1542373 194.468644,67.1542373 C195.455085,67.1542373 196.324576,67.4389831 196.868644,67.759322 L196.426271,69.0508475 C196.039831,68.8067797 195.333051,68.4864407 194.427966,68.4864407 C193.380508,68.4864407 192.790678,69.0915254 192.790678,69.8186441 C192.790678,70.6271186 193.380508,70.9881356 194.651695,71.4711864 C196.344915,72.1169492 197.209322,72.9661017 197.209322,74.4152542 C197.209322,76.1338983 195.877119,77.3389831 193.558475,77.3389831 C192.490678,77.3389831 191.499153,77.079661 190.817797,76.6779661 L191.260169,75.3254237 Z" id="Fill-34" fill="#FEFEFE" fill-rule="nonzero" mask="url(#mask-20)"></path>
                </g>
                <g id="Fill-35-Clipped">
                    <mask id="mask-22" fill="white">
                        <use xlink:href="#path-21"></use>
                    </mask>
                    <g id="path-1"></g>
                    <path d="M210.737797,76.7776271 C210.275085,77.0166102 209.247966,77.3420339 207.936102,77.3420339 C204.992034,77.3420339 203.075085,75.3437288 203.075085,72.3589831 C203.075085,69.3538983 205.129322,67.1725424 208.317458,67.1725424 C209.364915,67.1725424 210.295424,67.4369492 210.778475,67.6759322 L210.37678,69.0488136 C209.949661,68.8098305 209.283559,68.5861017 208.317458,68.5861017 C206.075085,68.5861017 204.87,70.2386441 204.87,72.2776271 C204.87,74.540339 206.319153,75.9284746 208.256441,75.9284746 C209.26322,75.9284746 209.929322,75.6691525 210.432712,75.4454237 L210.737797,76.7776271 Z" id="Fill-35" fill="#FEFEFE" fill-rule="nonzero" mask="url(#mask-22)"></path>
                </g>
                <g id="Fill-36-Clipped">
                    <mask id="mask-24" fill="white">
                        <use xlink:href="#path-23"></use>
                    </mask>
                    <g id="path-1"></g>
                    <path d="M213.915763,72.2786441 C213.915763,74.4142373 215.146271,76.0311864 216.880169,76.0311864 C218.578475,76.0311864 219.849661,74.4345763 219.849661,72.2379661 C219.849661,70.5854237 219.015763,68.4854237 216.920847,68.4854237 C214.820847,68.4854237 213.915763,70.4227119 213.915763,72.2786441 M221.659831,72.1769492 C221.659831,75.7871186 219.158136,77.3633898 216.798814,77.3633898 C214.154746,77.3633898 212.120847,75.4261017 212.120847,72.339661 C212.120847,69.0701695 214.256441,67.1532203 216.961525,67.1532203 C219.76322,67.1532203 221.659831,69.1922034 221.659831,72.1769492" id="Fill-36" fill="#FEFEFE" fill-rule="nonzero" mask="url(#mask-24)"></path>
                </g>
                <g id="Fill-37-Clipped">
                    <mask id="mask-26" fill="white">
                        <use xlink:href="#path-25"></use>
                    </mask>
                    <g id="path-1"></g>
                    <path d="M223.911356,70.0194915 C223.911356,69.0127119 223.891017,68.1838983 223.83,67.3754237 L225.401186,67.3754237 L225.502881,68.9872881 L225.543559,68.9872881 C226.031695,68.0618644 227.160508,67.1567797 228.772373,67.1567797 C230.124915,67.1567797 232.224915,67.9601695 232.224915,71.3110169 L232.224915,77.1381356 L230.450339,77.1381356 L230.450339,71.509322 C230.450339,69.9381356 229.860508,68.6262712 228.187627,68.6262712 C227.018136,68.6262712 226.113051,69.4550847 225.807966,70.4415254 C225.72661,70.6652542 225.685932,70.970339 225.685932,71.270339 L225.685932,77.1381356 L223.911356,77.1381356 L223.911356,70.0194915 Z" id="Fill-37" fill="#FEFEFE" fill-rule="nonzero" mask="url(#mask-26)"></path>
                </g>
                <g id="Fill-38-Clipped">
                    <mask id="mask-28" fill="white">
                        <use xlink:href="#path-27"></use>
                    </mask>
                    <g id="path-1"></g>
                    <path d="M234.880169,75.3254237 C235.403898,75.6661017 236.334407,76.0322034 237.219153,76.0322034 C238.510678,76.0322034 239.115763,75.3864407 239.115763,74.5779661 C239.115763,73.7338983 238.612373,73.2661017 237.300508,72.7830508 C235.546271,72.1576271 234.717458,71.1915254 234.717458,70.0220339 C234.717458,68.4457627 235.988644,67.1542373 238.083559,67.1542373 C239.075085,67.1542373 239.944576,67.4389831 240.488644,67.759322 L240.046271,69.0508475 C239.659831,68.8067797 238.953051,68.4864407 238.047966,68.4864407 C237.000508,68.4864407 236.410678,69.0915254 236.410678,69.8186441 C236.410678,70.6271186 237.000508,70.9881356 238.271695,71.4711864 C239.964915,72.1169492 240.829322,72.9661017 240.829322,74.4152542 C240.829322,76.1338983 239.497119,77.3389831 237.178475,77.3389831 C236.110678,77.3389831 235.119153,77.079661 234.437797,76.6779661 L234.880169,75.3254237 Z" id="Fill-38" fill="#FEFEFE" fill-rule="nonzero" mask="url(#mask-28)"></path>
                </g>
                <g id="Fill-39-Clipped">
                    <mask id="mask-30" fill="white">
                        <use xlink:href="#path-29"></use>
                    </mask>
                    <g id="path-1"></g>
                    <path d="M249.312712,71.3105085 C249.333051,70.1816949 248.85,68.4274576 246.851695,68.4274576 C245.05678,68.4274576 244.268644,70.08 244.126271,71.3105085 L249.312712,71.3105085 Z M244.105932,72.5816949 C244.14661,74.9816949 245.682203,75.9732203 247.45678,75.9732203 C248.727966,75.9732203 249.495763,75.7494915 250.161864,75.4647458 L250.461864,76.7359322 C249.836441,77.020678 248.768644,77.3410169 247.212712,77.3410169 C244.207627,77.3410169 242.412712,75.3630508 242.412712,72.4189831 C242.412712,69.4749153 244.14661,67.1562712 246.988983,67.1562712 C250.177119,67.1562712 251.026271,69.9579661 251.026271,71.7528814 C251.026271,72.1189831 250.985593,72.3986441 250.965254,72.5816949 L244.105932,72.5816949 Z" id="Fill-39" fill="#FEFEFE" fill-rule="nonzero" mask="url(#mask-30)"></path>
                </g>
                <g id="Fill-40-Clipped">
                    <mask id="mask-32" fill="white">
                        <use xlink:href="#path-31"></use>
                    </mask>
                    <g id="path-1"></g>
                    <path d="M253.235593,77.1355932 L255.010169,77.1355932 L255.010169,67.3728814 L253.235593,67.3728814 L253.235593,77.1355932 Z M255.213559,64.6322034 C255.233898,65.2372881 254.791525,65.720339 254.084746,65.720339 C253.459322,65.720339 253.016949,65.2372881 253.016949,64.6322034 C253.016949,64.0067797 253.479661,63.5237288 254.125424,63.5237288 C254.791525,63.5237288 255.213559,64.0067797 255.213559,64.6322034 L255.213559,64.6322034 Z" id="Fill-40" fill="#FEFEFE" fill-rule="nonzero" mask="url(#mask-32)"></path>
                </g>
                <g id="Fill-41-Clipped">
                    <mask id="mask-34" fill="white">
                        <use xlink:href="#path-33"></use>
                    </mask>
                    <g id="path-1"></g>
                    <polygon id="Fill-41" fill="#FEFEFE" fill-rule="nonzero" mask="url(#mask-34)" points="257.959322 77.140678 259.733898 77.140678 259.733898 62.8169492 257.959322 62.8169492"></polygon>
                </g>
                <g id="Fill-42-Clipped">
                    <mask id="mask-36" fill="white">
                        <use xlink:href="#path-35"></use>
                    </mask>
                    <g id="path-1"></g>
                    <path d="M262.484237,75.3254237 C263.007966,75.6661017 263.938475,76.0322034 264.82322,76.0322034 C266.114746,76.0322034 266.719831,75.3864407 266.719831,74.5779661 C266.719831,73.7338983 266.216441,73.2661017 264.904576,72.7830508 C263.150339,72.1576271 262.321525,71.1915254 262.321525,70.0220339 C262.321525,68.4457627 263.592712,67.1542373 265.687627,67.1542373 C266.679153,67.1542373 267.548644,67.4389831 268.092712,67.759322 L267.650339,69.0508475 C267.263898,68.8067797 266.557119,68.4864407 265.652034,68.4864407 C264.604576,68.4864407 264.014746,69.0915254 264.014746,69.8186441 C264.014746,70.6271186 264.604576,70.9881356 265.875763,71.4711864 C267.568983,72.1169492 268.43339,72.9661017 268.43339,74.4152542 C268.43339,76.1338983 267.101186,77.3389831 264.782542,77.3389831 C263.714746,77.3389831 262.72322,77.079661 262.041864,76.6779661 L262.484237,75.3254237 Z" id="Fill-42" fill="#FEFEFE" fill-rule="nonzero" mask="url(#mask-36)"></path>
                </g>
                <g id="Fill-43-Clipped">
                    <mask id="mask-38" fill="white">
                        <use xlink:href="#path-37"></use>
                    </mask>
                    <g id="path-1"></g>
                    <path d="M274.82339,75.0025424 C275.611525,75.4855932 276.760678,75.8872881 277.970847,75.8872881 C279.765763,75.8872881 280.81322,74.9415254 280.81322,73.5686441 C280.81322,72.2974576 280.091186,71.570339 278.250508,70.8686441 C276.033559,70.0805085 274.660678,68.9313559 274.660678,67.0144068 C274.660678,64.8940678 276.414915,63.3228814 279.058983,63.3228814 C280.452203,63.3228814 281.458983,63.6432203 282.064068,63.9889831 L281.581017,65.4177966 C281.138644,65.1788136 280.228475,64.7720339 278.997966,64.7720339 C277.142034,64.7720339 276.435254,65.8855932 276.435254,66.8110169 C276.435254,68.0822034 277.264068,68.7076271 279.140339,69.4347458 C281.438644,70.3245763 282.608136,71.4330508 282.608136,73.4262712 C282.608136,75.5262712 281.057288,77.3415254 277.848814,77.3415254 C276.536949,77.3415254 275.108136,76.9601695 274.381017,76.4771186 L274.82339,75.0025424 Z" id="Fill-43" fill="#FEFEFE" fill-rule="nonzero" mask="url(#mask-38)"></path>
                </g>
                <g id="Fill-44-Clipped">
                    <mask id="mask-40" fill="white">
                        <use xlink:href="#path-39"></use>
                    </mask>
                    <g id="path-1"></g>
                    <path d="M291.67678,71.4920339 L290.344576,67.5767797 C290.044576,66.6920339 289.841186,65.8835593 289.637797,65.0954237 L289.597119,65.0954237 C289.398814,65.9038983 289.175085,66.7276271 288.915763,67.5615254 L287.578475,71.4920339 L291.67678,71.4920339 Z M287.217458,72.8649153 L285.803898,77.1411864 L283.988644,77.1411864 L288.610678,63.5445763 L290.725932,63.5445763 L295.368305,77.1411864 L293.492034,77.1411864 L292.037797,72.8649153 L287.217458,72.8649153 Z" id="Fill-44" fill="#FEFEFE" fill-rule="nonzero" mask="url(#mask-40)"></path>
                </g>
                <g id="Fill-45-Clipped">
                    <mask id="mask-42" fill="white">
                        <use xlink:href="#path-41"></use>
                    </mask>
                    <g id="path-1"></g>
                    <path d="M92.5820339,77.8327119 L64.0922034,77.8327119 C62.9074576,77.8327119 61.9159322,76.8411864 61.9159322,75.6564407 C61.9159322,74.4666102 62.9074576,73.4801695 64.0922034,73.4801695 L92.5820339,73.4801695 C93.7667797,73.4801695 94.7583051,74.4666102 94.7583051,75.6564407 C94.56,77.0394915 93.7667797,77.8327119 92.5820339,77.8327119" id="Fill-45" fill="#31BCE5" fill-rule="nonzero" mask="url(#mask-42)"></path>
                </g>
                <g id="Fill-46-Clipped">
                    <mask id="mask-44" fill="white">
                        <use xlink:href="#path-43"></use>
                    </mask>
                    <g id="path-1"></g>
                    <path d="M92.5820339,55.0830508 L64.0922034,55.0830508 C62.9074576,55.0830508 61.9159322,54.0966102 61.9159322,52.9067797 C61.9159322,51.7169492 62.9074576,50.7355932 64.0922034,50.7355932 L92.5820339,50.7355932 C93.7667797,50.7355932 94.7583051,51.7169492 94.7583051,52.9067797 C94.7583051,54.0966102 93.7667797,55.0830508 92.5820339,55.0830508" id="Fill-46" fill="#31BCE5" fill-rule="nonzero" mask="url(#mask-44)"></path>
                </g>
                <g id="Fill-47-Clipped">
                    <mask id="mask-46" fill="white">
                        <use xlink:href="#path-45"></use>
                    </mask>
                    <g id="path-1"></g>
                    <path d="M92.5820339,66.3574576 L64.0922034,66.3574576 C62.9074576,66.3574576 61.9159322,65.3659322 61.9159322,64.1811864 C61.9159322,62.9964407 62.9074576,62.0049153 64.0922034,62.0049153 L92.5820339,62.0049153 C93.7667797,62.0049153 94.7583051,62.9964407 94.7583051,64.1811864 C94.56,65.569322 93.7667797,66.3574576 92.5820339,66.3574576" id="Fill-47" fill="#31BCE5" fill-rule="nonzero" mask="url(#mask-46)"></path>
                </g>
                <g id="Fill-48-Clipped">
                    <mask id="mask-48" fill="white">
                        <use xlink:href="#path-47"></use>
                    </mask>
                    <g id="path-1"></g>
                    <polygon id="Fill-48" fill="#FEFEFE" fill-rule="nonzero" mask="url(#mask-48)" points="41.1488136 33.1230508 10.879322 33.1230508 10.879322 3.25016949 -0.00203389831 3.25016949 -0.00203389831 77.8332203 10.879322 77.8332203 10.879322 43.6077966 41.1488136 43.6077966 41.1488136 77.8332203 52.0301695 77.8332203 52.0301695 3.25016949 41.1488136 3.25016949"></polygon>
                </g>
                <g id="Fill-49-Clipped">
                    <mask id="mask-50" fill="white">
                        <use xlink:href="#path-49"></use>
                    </mask>
                    <g id="path-1"></g>
                    <path d="M87.8323729,22.0444068 C85.6561017,20.8545763 84.0747458,20.4630508 81.3035593,19.6698305 C78.3391525,18.8766102 76.1628814,18.0884746 74.7747458,17.300339 C73.7883051,16.7054237 73.1984746,15.7138983 73.1984746,14.3308475 C73.1984746,11.3613559 75.369661,9.58169492 78.9340678,9.58169492 C81.8984746,9.58169492 84.0747458,11.1630508 85.6561017,14.5291525 L86.0527119,15.7189831 L92.1849153,12.5511864 L91.7883051,11.559661 C89.6120339,6.02237288 84.8679661,2.66135593 78.730678,2.66135593 C74.7747458,2.66135593 71.6120339,3.64779661 69.4357627,6.02237288 C67.0611864,8.19864407 65.8764407,10.9698305 65.8764407,14.5291525 C66.0747458,19.2783051 67.6561017,22.2427119 71.4137288,24.0223729 C73.7883051,25.2122034 75.1713559,25.6088136 77.7442373,26.2037288 C80.5154237,26.7935593 81.3035593,27.1901695 83.0832203,27.7850847 C83.8764407,27.9833898 84.2730508,28.38 84.4713559,28.5732203 C84.8679661,28.9698305 85.4628814,29.7630508 85.4628814,31.3444068 C85.4628814,36.2918644 81.3035593,37.08 78.730678,37.08 C74.1849153,37.08 71.4137288,34.5071186 70.030678,29.3664407 L69.6340678,28.1816949 L63.1052542,30.7494915 L63.3035593,31.7410169 C64.8849153,39.4545763 70.6205085,44.0054237 78.730678,44.0054237 C83.0832203,44.0054237 86.449322,42.8155932 88.8238983,40.4461017 C91.1984746,38.0715254 92.3832203,34.9037288 92.3832203,30.5511864 C92.7798305,26.3969492 91.1984746,23.8240678 87.8323729,22.0444068" id="Fill-49" fill="#FEFEFE" fill-rule="nonzero" mask="url(#mask-50)"></path>
                </g>
            </g>
        </g>
    </g>
</svg>