<?xml version="1.0" encoding="UTF-8"?>
<svg width="300px" height="100px" viewBox="0 0 300 100" version="1.1" xmlns="http://www.w3.org/2000/svg" xmlns:xlink="http://www.w3.org/1999/xlink">
    <!-- Generator: Sketch 56 (81588) - https://sketch.com -->
    <title>Group</title>
    <desc>Created with Sketch.</desc>
    <g id="Page-1" stroke="none" stroke-width="1" fill="none" fill-rule="evenodd">
        <g id="Group" fill-rule="nonzero">
            <g transform="translate(140.000000, 26.666667)" fill="#FFFFFF">
                <polygon id="XMLID_27_" points="7.33333333 29.3333333 7.33333333 3.33333333 11.3333333 3.33333333 11.3333333 29.3333333"></polygon>
                <path d="M17.3333333,10.6666667 L21.3333333,10.6666667 L21.3333333,14 C22.6666667,11.3333333 24.6666667,10.6666667 27.3333333,10.6666667 C30.6666667,10.6666667 32.6666667,12.6666667 32.6666667,16.6666667 L32.6666667,30 L29.3333333,30 L29.3333333,17.3333333 C29.3333333,14.6666667 28,14 26.6666667,14 C25.3333333,14 24,14.6666667 23.3333333,16 C22,17.3333333 22,19.3333333 22,22 L22,29.3333333 L18,29.3333333 L17.3333333,10.6666667 L17.3333333,10.6666667 Z" id="XMLID_26_"></path>
                <path d="M40,12 C41.3333333,10.6666667 42.6666667,10 44.6666667,10 C46,10 47.3333333,10 48,10.6666667 L51.3333333,8.66666667 L53.3333333,12 L50.6666667,13.3333333 C51.3333333,14.6666667 51.3333333,15.3333333 51.3333333,16.6666667 C51.3333333,18.6666667 50.6666667,20 49.3333333,21.3333333 C48,22.6666667 46.6666667,22.6666667 44.6666667,22.6666667 C43.3333333,22.6666667 42.6666667,22.6666667 41.3333333,22 C40.6666667,22 40,23.3333333 40,23.3333333 C40,24.6666667 40.6666667,24.6666667 42,24.6666667 L46.6666667,24.6666667 C50.6666667,24.6666667 52.6666667,26.6666667 52.6666667,30 C52.6666667,32 52,34 50,34.6666667 C48.6666667,36 46.6666667,36 44,36 C39.3333333,36 36,34 36,30 C36,28.6666667 36.6666667,27.3333333 37.3333333,26 C36.6666667,25.3333333 36,24 36,23.3333333 C36,22 36.6666667,20.6666667 38.6666667,19.3333333 C38,18 37.3333333,16.6666667 37.3333333,15.3333333 C38,14.6666667 38.6666667,13.3333333 40,12 Z M42.6666667,28.6666667 C42,28.6666667 41.3333333,28.6666667 40.6666667,28.6666667 C40,29.3333333 40,30 40,31.3333333 C40,33.3333333 42,34.6666667 44.6666667,34.6666667 C47.3333333,34.6666667 49.3333333,33.3333333 49.3333333,32 C49.3333333,30.6666667 48,29.3333333 46,29.3333333 L42.6666667,28.6666667 L42.6666667,28.6666667 Z M48,16.6666667 C48,14.6666667 46.6666667,13.3333333 44.6666667,13.3333333 C42.6666667,13.3333333 42,14.6666667 42,16.6666667 C42,18.6666667 43.3333333,20 44.6666667,20 C46.6666667,20 48,18.6666667 48,16.6666667 Z" id="XMLID_25_"></path>
                <path d="M72.6666667,21.3333333 L59.3333333,21.3333333 C59.3333333,24 61.3333333,26.6666667 64,26.6666667 C66,26.6666667 68,25.3333333 68.6666667,23.3333333 L72,24.6666667 C70,28 68,30 64,30 C58,30 55.3333333,24.6666667 55.3333333,20.6666667 C55.3333333,16.6666667 58,11.3333333 64,11.3333333 C70,11.3333333 72.6666667,16 72.6666667,20.6666667 L72.6666667,21.3333333 L72.6666667,21.3333333 Z M59.3333333,18 L68.6666667,18 C68.6666667,15.3333333 66.6666667,14 64,14 C62,14 60,16 59.3333333,18 Z M61.3333333,8.66666667 L64,3.33333333 L69.3333333,3.33333333 L64.6666667,8.66666667 L61.3333333,8.66666667 Z" id="XMLID_24_"></path>
                <path d="M76.6666667,10.6666667 L80.6666667,10.6666667 L80.6666667,14 C82,11.3333333 84,10.6666667 86.6666667,10.6666667 C90,10.6666667 92,12.6666667 92,16.6666667 L92,30 L88,30 L88,17.3333333 C88,14.6666667 86.6666667,14 85.3333333,14 C84,14 82.6666667,14.6666667 82,16 C80.6666667,17.3333333 80.6666667,19.3333333 80.6666667,22 L80.6666667,29.3333333 L76.6666667,29.3333333 L76.6666667,10.6666667 L76.6666667,10.6666667 Z" id="XMLID_23_"></path>
                <path d="M97.3333333,3.33333333 C98.6666667,2 100,2 101.333333,3.33333333 C102.666667,4.66666667 102.666667,6 101.333333,7.33333333 C100,8.66666667 98.6666667,8.66666667 97.3333333,7.33333333 C96,6.66666667 96,4.66666667 97.3333333,3.33333333 Z M97.3333333,10.6666667 L101.333333,10.6666667 L101.333333,29.3333333 L97.3333333,29.3333333 L97.3333333,10.6666667 Z" id="XMLID_22_"></path>
                <path d="M122.666667,21.3333333 L109.333333,21.3333333 C109.333333,24 111.333333,26.6666667 114,26.6666667 C116,26.6666667 118,25.3333333 118.666667,23.3333333 L122,24.6666667 C120,28 118,30 114,30 C108,30 105.333333,24.6666667 105.333333,20.6666667 C105.333333,16.6666667 108,11.3333333 114,11.3333333 C120,11.3333333 122.666667,16 122.666667,20.6666667 L122.666667,21.3333333 Z M109.333333,18 L118.666667,18 C118.666667,15.3333333 116.666667,14 114,14 C111.333333,14 110,16 109.333333,18 Z" id="XMLID_21_"></path>
                <path d="M142.666667,29.3333333 L138.666667,29.3333333 L138.666667,26.6666667 C137.333333,29.3333333 135.333333,30 132.666667,30 C129.333333,30 127.333333,28 127.333333,24 L127.333333,10.6666667 L131.333333,10.6666667 L131.333333,22.6666667 C131.333333,25.3333333 132.666667,26 134,26 C135.333333,26 136.666667,25.3333333 137.333333,24 C138.666667,22.6666667 138.666667,20.6666667 138.666667,18 L138.666667,10.6666667 L142.666667,10.6666667 L142.666667,29.3333333 L142.666667,29.3333333 Z" id="XMLID_20_"></path>
                <path d="M152,29.3333333 L148,29.3333333 L148,10.6666667 L152,10.6666667 L152,14 C153.333333,12 155.333333,10.6666667 157.333333,10.6666667 C158,10.6666667 158.666667,10.6666667 160,11.3333333 L159.333333,14.6666667 C158.666667,14.6666667 158,14 157.333333,14 C156,14 154.666667,14.6666667 154,16.6666667 C152.666667,18 152.666667,20 152.666667,23.3333333 L152,29.3333333 L152,29.3333333 L152,29.3333333 Z" id="XMLID_19_"></path>
            </g>
            <g transform="translate(146.666667, 66.666667)" fill="#FFFFFF">
                <path d="M12.6666667,11.3333333 C11.3333333,9.33333333 10,8.66666667 8.66666667,8.66666667 C7.33333333,8.66666667 6,10 6,11.3333333 C6,13.3333333 8,14.6666667 10,15.3333333 C13.3333333,16.6666667 17.3333333,18.6666667 17.3333333,23.3333333 C17.3333333,26 16.6666667,28 14.6666667,29.3333333 C13.3333333,30.6666667 11.3333333,31.3333333 8.66666667,31.3333333 C4,31.3333333 0.666666667,28.6666667 3.55271368e-15,24 L3.33333333,22 C4.66666667,25.3333333 6,27.3333333 8.66666667,27.3333333 C11.3333333,27.3333333 12.6666667,26 12.6666667,23.3333333 C12.6666667,18 1.33333333,19.3333333 1.33333333,11.3333333 C1.33333333,9.33333333 2,8 3.33333333,6.66666667 C4.66666667,5.33333333 6,4.66666667 8,4.66666667 C11.3333333,4.66666667 13.3333333,6 15.3333333,9.33333333 L12.6666667,11.3333333 Z" id="XMLID_18_"></path>
                <path d="M29.3333333,20 L32.6666667,20 L32.6666667,19.3333333 C32.6666667,16.6666667 31.3333333,16 29.3333333,16 C27.3333333,16 26.6666667,16.6666667 26,18.6666667 L22.6666667,18 C23.3333333,14.6666667 26,12.6666667 30,12.6666667 C34.6666667,12.6666667 37.3333333,15.3333333 37.3333333,20 L37.3333333,32 L34,32 L34,30 C32.6666667,32 30.6666667,32.6666667 28,32.6666667 C24.6666667,32.6666667 22,30.6666667 22,26.6666667 C20.6666667,22 24,20 29.3333333,20 Z M27.3333333,28 C28.6666667,28 30,27.3333333 30.6666667,26.6666667 C32,26 32,24.6666667 32,23.3333333 L32,22.6666667 L28.6666667,22.6666667 C26,22.6666667 24.6666667,24 24.6666667,25.3333333 C24.6666667,27.3333333 26,28 27.3333333,28 Z" id="XMLID_17_"></path>
                <path d="M41.3333333,12.6666667 L45.3333333,12.6666667 L45.3333333,16 C46.6666667,13.3333333 48.6666667,12.6666667 51.3333333,12.6666667 C54.6666667,12.6666667 56.6666667,14.6666667 56.6666667,18.6666667 L56.6666667,32 L52.6666667,32 L52.6666667,20 C52.6666667,17.3333333 51.3333333,16.6666667 50,16.6666667 C48.6666667,16.6666667 47.3333333,17.3333333 46.6666667,18.6666667 C45.3333333,20 45.3333333,22 45.3333333,24.6666667 L45.3333333,32 L41.3333333,32 L41.3333333,12.6666667 L41.3333333,12.6666667 Z" id="XMLID_16_"></path>
                <path d="M61.3333333,5.33333333 C62.6666667,4 64,4 65.3333333,5.33333333 C66.6666667,6.66666667 66.6666667,8 65.3333333,9.33333333 C64,10.6666667 62.6666667,10.6666667 61.3333333,9.33333333 C60.6666667,8 60.6666667,6.66666667 61.3333333,5.33333333 Z M61.3333333,12.6666667 L65.3333333,12.6666667 L65.3333333,31.3333333 L61.3333333,31.3333333 L61.3333333,12.6666667 Z" id="XMLID_15_"></path>
                <path d="M69.3333333,16 L69.3333333,12.6666667 L72.6666667,12.6666667 L72.6666667,7.33333333 L76.6666667,4.66666667 L76.6666667,12 L81.3333333,12 L81.3333333,15.3333333 L76.6666667,15.3333333 L76.6666667,24.6666667 C76.6666667,26.6666667 77.3333333,28 79.3333333,28 C80,28 80.6666667,28 81.3333333,27.3333333 L82.6666667,30.6666667 C81.3333333,31.3333333 80.6666667,31.3333333 79.3333333,31.3333333 C76,31.3333333 73.3333333,28.6666667 73.3333333,24.6666667 L73.3333333,16 L69.3333333,16 L69.3333333,16 Z" id="XMLID_14_"></path>
                <path d="M92.6666667,20 L96,20 L96,19.3333333 C96,16.6666667 94.6666667,16 92.6666667,16 C90.6666667,16 90,16.6666667 89.3333333,18.6666667 L86,18 C86.6666667,14.6666667 89.3333333,12.6666667 93.3333333,12.6666667 C98,12.6666667 100.666667,15.3333333 100.666667,20 L100.666667,32 L97.3333333,32 L97.3333333,29.3333333 C96,31.3333333 94,32 91.3333333,32 C88,32 85.3333333,30 85.3333333,26 C84.6666667,22 88,20 92.6666667,20 Z M90.6666667,28 C92,28 93.3333333,27.3333333 94,26.6666667 C95.3333333,26 95.3333333,24.6666667 95.3333333,23.3333333 L95.3333333,22.6666667 L92,22.6666667 C89.3333333,22.6666667 88,24 88,25.3333333 C88.6666667,27.3333333 89.3333333,28 90.6666667,28 Z" id="XMLID_13_"></path>
                <path d="M104.666667,5.33333333 C106,4 107.333333,4 108.666667,5.33333333 C110,6.66666667 110,8 108.666667,9.33333333 C107.333333,10.6666667 106,10.6666667 104.666667,9.33333333 C103.333333,8 103.333333,6.66666667 104.666667,5.33333333 Z M104.666667,12.6666667 L108.666667,12.6666667 L108.666667,31.3333333 L104.666667,31.3333333 L104.666667,12.6666667 Z" id="XMLID_12_"></path>
                <path d="M117.333333,31.3333333 L113.333333,31.3333333 L113.333333,12.6666667 L117.333333,12.6666667 L117.333333,16 C118.666667,14 120.666667,12.6666667 122.666667,12.6666667 C123.333333,12.6666667 124,12.6666667 125.333333,13.3333333 L124.666667,16.6666667 C124,16.6666667 123.333333,16 122.666667,16 C121.333333,16 120,16.6666667 119.333333,18.6666667 C118,20 118,22 118,25.3333333 L117.333333,31.3333333 L117.333333,31.3333333 L117.333333,31.3333333 Z" id="XMLID_11_"></path>
                <path d="M144.666667,23.3333333 L131.333333,23.3333333 C131.333333,26 133.333333,28.6666667 136,28.6666667 C138,28.6666667 140,27.3333333 140.666667,25.3333333 L144,26.6666667 C142,30 140,32 136,32 C130,32 127.333333,26.6666667 127.333333,22.6666667 C127.333333,18 130,13.3333333 136,13.3333333 C142,13.3333333 144.666667,18 144.666667,22.6666667 L144.666667,23.3333333 L144.666667,23.3333333 Z M131.333333,20 L140.666667,20 C140.666667,17.3333333 138.666667,16 136,16 C133.333333,16 132,17.3333333 131.333333,20 Z" id="XMLID_10_"></path>
            </g>
            <g id="XMLID_3_" transform="translate(80.000000, 60.000000)" fill="#31BDE6">
                <g id="XMLID_8_" transform="translate(0.000000, 26.666667)">
                    <path d="M41.3333333,12 L4,12 C2.66666667,12 1.33333333,10.6666667 1.33333333,9.33333333 C1.33333333,8 2.66666667,6.66666667 4,6.66666667 L41.3333333,6.66666667 C42.6666667,6.66666667 44,8 44,9.33333333 C44,11.3333333 43.3333333,12 41.3333333,12 Z" id="XMLID_9_"></path>
                </g>
                <g id="XMLID_6_">
                    <path d="M41.3333333,8.66666667 L4,8.66666667 C2.66666667,8.66666667 1.33333333,7.33333333 1.33333333,6 C1.33333333,4.66666667 2.66666667,3.33333333 4,3.33333333 L41.3333333,3.33333333 C42.6666667,3.33333333 44,4.66666667 44,6 C44.6666667,7.33333333 43.3333333,8.66666667 41.3333333,8.66666667 Z" id="XMLID_7_"></path>
                </g>
                <g id="XMLID_4_" transform="translate(0.000000, 13.333333)">
                    <path d="M41.3333333,10.6666667 L4,10.6666667 C2.66666667,10.6666667 1.33333333,9.33333333 1.33333333,8 C1.33333333,6.66666667 2.66666667,5.33333333 4,5.33333333 L41.3333333,5.33333333 C42.6666667,5.33333333 44,6.66666667 44,8 C44,9.33333333 43.3333333,10.6666667 41.3333333,10.6666667 Z" id="XMLID_5_"></path>
                </g>
            </g>
            <polygon id="XMLID_2_" fill="#FFFFFF" points="54 40 14 40 14 0.666666667 0 0.666666667 0 98.6666667 14 98.6666667 14 54 54 54 54 98.6666667 68.6666667 98.6666667 68.6666667 0.666666667 54 0.666666667"></polygon>
            <path d="M115.333333,25.3333333 C112.666667,24 110.666667,23.3333333 106.666667,22 C102.666667,20.6666667 100,20 98,18.6666667 C96.6666667,18 96,16.6666667 96,14.6666667 C96,10.6666667 98.6666667,8.66666667 103.333333,8.66666667 C107.333333,8.66666667 110,10.6666667 112,15.3333333 L113.333333,17.3333333 L121.333333,13.3333333 L120.666667,12 C118,4.66666667 111.333333,0 103.333333,0 C98,0 94,1.33333333 91.3333333,4.66666667 C88,7.33333333 86.6666667,11.3333333 86.6666667,16 C86.6666667,22 89.3333333,26 94,28.6666667 C97.3333333,30 98.6666667,30.6666667 102,31.3333333 C106,32 106.666667,32 109.333333,33.3333333 C110.666667,33.3333333 110.666667,34 111.333333,34.6666667 C112,35.3333333 112.666667,36 112.666667,38 C112.666667,44.6666667 107.333333,45.3333333 104,45.3333333 C98,45.3333333 94.6666667,42 92.6666667,35.3333333 L91.3333333,33.3333333 L82.6666667,36.6666667 L82.6666667,38 C84.6666667,48 92,54 102.666667,54 C108.666667,54 112.666667,52.6666667 116,49.3333333 C120,46.6666667 121.333333,42.6666667 121.333333,36.6666667 C122,31.3333333 120,28 115.333333,25.3333333 Z" id="XMLID_1_" fill="#FFFFFF"></path>
        </g>
    </g>
</svg>